<?xml version="1.0" standalone="no"?>
<!DOCTYPE svg PUBLIC "-//W3C//DTD SVG 20010904//EN"
 "http://www.w3.org/TR/2001/REC-SVG-20010904/DTD/svg10.dtd">
<svg version="1.0" xmlns="http://www.w3.org/2000/svg"
 width="600.000000pt" height="750.000000pt" viewBox="0 0 600.000000 750.000000"
 preserveAspectRatio="xMidYMid meet">

<g transform="translate(0.000000,750.000000) scale(0.100000,-0.100000)"
fill="#000000" stroke="none">
<path d="M0 3750 l0 -3750 1593 1 c875 0 1586 3 1580 6 -7 2 -13 13 -13 23 0
10 6 21 13 24 10 5 10 7 0 12 -26 12 -10 51 27 67 8 4 3 6 -11 4 -27 -4 -37
20 -15 36 8 6 7 10 -1 14 -17 6 -17 40 -1 45 9 3 8 10 -5 22 -17 17 -17 19 -1
37 16 18 16 19 1 19 -22 0 -22 29 1 47 12 9 13 13 3 11 -24 -5 -24 31 0 51
l22 18 -24 -1 c-15 -1 -24 5 -24 14 0 8 6 14 13 12 6 -1 12 5 12 13 0 8 -6 14
-12 13 -7 -2 -13 6 -13 17 0 11 6 19 13 17 6 -1 12 5 12 13 0 8 -6 12 -14 9
-7 -3 -16 1 -19 9 -7 18 8 41 20 34 6 -4 8 4 5 18 -4 21 -1 24 14 19 18 -5 18
-5 2 6 -23 14 -23 36 0 45 16 6 16 7 0 16 -19 11 -25 39 -8 39 15 0 12 20 -7
38 -16 16 -16 17 0 20 9 2 17 10 17 18 0 8 -5 13 -11 12 -6 -2 -15 7 -19 18
-7 18 -5 21 11 17 10 -3 19 0 19 6 0 6 -7 11 -15 11 -8 0 -15 9 -15 20 0 11 7
20 15 20 8 0 15 5 15 10 0 6 -7 10 -15 10 -8 0 -15 9 -15 20 0 11 5 20 10 20
6 0 10 5 10 10 0 6 -7 10 -15 10 -21 0 -19 26 2 35 17 6 17 7 1 19 -23 17 -23
32 -1 41 17 6 17 7 1 19 -20 14 -24 36 -8 36 16 0 11 27 -6 34 -15 6 -15 8 0
25 17 18 16 20 0 29 -15 8 -16 13 -5 25 10 12 10 20 -1 37 -11 17 -11 22 2 30
13 9 13 12 -3 24 -16 12 -17 17 -5 35 11 18 11 23 -1 31 -13 7 -13 11 -1 25
12 15 12 19 -5 32 -20 14 -20 14 0 29 20 15 20 16 1 29 -16 12 -17 17 -6 30
10 12 10 18 0 30 -10 12 -10 18 0 30 11 13 10 18 -6 29 -16 12 -16 16 -5 30
12 14 11 19 -5 31 -18 14 -18 16 -2 28 16 13 16 15 1 30 -14 14 -14 18 -3 33
12 14 12 18 -5 30 -18 14 -18 14 1 28 19 15 19 15 -1 30 -17 13 -18 17 -5 26
13 8 13 13 2 30 -10 17 -11 25 -1 36 10 12 8 17 -7 28 -16 12 -16 16 -4 31 12
14 12 18 0 25 -11 7 -12 14 -2 34 10 22 9 26 -3 26 -8 0 -15 7 -15 15 0 8 5
15 10 15 16 0 12 27 -5 34 -13 5 -13 9 -3 27 10 17 10 23 1 26 -15 6 -17 33
-3 33 20 0 10 28 -12 33 -21 6 -21 7 -4 26 21 23 14 41 -17 41 -20 1 -21 2 -4
14 23 18 22 36 -3 36 -22 0 -26 10 -9 27 16 16 -10 83 -31 83 -10 0 -31 7 -49
16 -21 11 -41 13 -59 8 -41 -11 -76 -12 -90 -1 -19 15 -118 20 -142 7 -15 -8
-25 -8 -34 0 -8 6 -60 19 -117 30 -109 21 -149 35 -149 55 0 45 -104 106 -250
149 -47 13 -98 32 -115 40 -16 9 -37 16 -45 16 -8 0 -30 9 -47 20 -30 18 -32
22 -21 45 6 14 9 27 7 29 -2 2 -44 6 -92 9 -82 4 -90 3 -116 -19 -16 -13 -36
-41 -46 -61 -9 -21 -22 -51 -30 -68 -7 -16 -19 -50 -26 -75 -7 -25 -17 -51
-23 -59 -6 -7 -11 -19 -12 -25 -5 -51 -5 -52 -16 -23 -5 15 -14 24 -20 21 -6
-4 -9 -1 -6 7 5 15 -57 53 -72 44 -6 -4 -10 3 -10 13 0 11 -9 22 -20 25 -15 4
-20 14 -20 37 0 21 -4 29 -12 24 -8 -5 -10 6 -5 42 5 42 3 52 -14 62 -10 7
-19 21 -19 32 0 11 -4 20 -10 20 -5 0 -10 9 -10 19 0 11 -6 21 -12 24 -10 3
-10 7 1 20 12 15 11 17 -5 17 -16 0 -17 2 -4 11 12 8 10 9 -10 7 -22 -3 -26 2
-30 31 -5 36 -35 56 -57 39 -21 -17 -104 0 -110 23 -3 10 -10 19 -15 19 -5 0
-6 5 -3 11 4 6 13 8 21 5 8 -3 14 -2 14 3 0 5 14 11 31 13 25 4 33 1 37 -14 6
-24 22 -23 22 2 0 10 -8 24 -18 30 -16 11 -16 11 1 6 9 -3 17 -1 17 4 0 6 -9
10 -20 10 -26 0 -26 20 0 48 26 28 25 33 -5 22 -20 -7 -25 -6 -25 5 0 17 -16
20 -25 5 -3 -6 -11 -10 -17 -10 -13 0 -2 128 13 146 5 7 9 16 8 20 -5 30 25
45 35 18 3 -7 14 -10 25 -7 14 3 21 1 21 -8 0 -19 34 32 35 53 2 21 -11 24
-19 6 -3 -7 -4 -2 -3 12 1 17 8 25 20 24 9 -1 17 2 17 8 0 5 5 6 10 3 6 -3 10
-1 10 5 0 7 -8 9 -22 4 -20 -6 -21 -5 -10 9 11 13 11 21 -2 46 -20 37 -20 41
-1 41 11 0 15 11 15 38 -1 33 -2 35 -14 20 -19 -25 -33 -22 -40 8 l-7 27 -20
-21 c-10 -12 -19 -28 -19 -37 0 -14 -2 -14 -13 -3 -7 7 -22 28 -32 46 -22 36
-40 40 -67 15 -10 -9 -18 -12 -18 -7 0 15 14 30 33 37 9 3 17 13 17 21 0 9 -6
13 -13 10 -7 -2 -24 4 -37 16 -13 11 -27 20 -32 20 -4 0 -8 6 -8 14 0 8 -4 17
-8 20 -5 3 -8 -5 -8 -17 1 -16 -5 -22 -21 -22 -13 0 -23 3 -23 8 0 4 0 34 0
67 0 48 3 60 16 60 11 0 13 -6 9 -19 -3 -11 -2 -22 3 -25 14 -8 54 25 48 40
-3 8 1 14 9 14 8 0 15 9 15 20 0 11 6 20 13 20 6 0 17 17 24 37 10 31 9 39 -3
46 -11 6 -12 13 -4 28 9 16 7 21 -15 31 -14 6 -25 15 -25 20 0 5 5 6 10 3 6
-3 10 0 10 7 0 14 -16 30 -60 61 -14 10 -18 17 -10 17 10 0 8 4 -5 14 -11 8
-25 12 -32 9 -7 -3 -13 -1 -13 5 0 12 47 25 60 17 6 -4 10 2 10 11 0 10 3 14
7 11 3 -4 12 5 20 20 8 16 10 29 4 32 -5 4 -4 13 3 23 7 10 16 14 21 10 4 -4
4 16 0 43 -4 28 -8 51 -8 52 -6 5 -45 5 -60 -2 -30 -13 -47 2 -47 40 0 24 -4
34 -11 29 -7 -4 -9 0 -5 14 5 14 1 22 -11 27 -17 6 -17 7 1 21 19 13 19 15 2
27 -15 11 -16 18 -7 34 8 17 8 22 -5 27 -9 4 -13 2 -8 -5 4 -7 1 -10 -7 -7
-12 4 -17 35 -9 63 1 6 2 19 1 29 -1 18 -2 18 -13 4 -17 -22 -68 -13 -68 12 0
10 7 20 15 24 8 3 15 16 15 29 0 19 7 26 31 31 l31 6 -21 33 c-20 34 -16 60
10 57 34 -5 59 1 59 14 0 26 20 28 31 2 10 -21 15 -23 40 -14 18 6 26 15 22
24 -3 8 0 14 6 14 8 0 9 6 2 18 -5 10 -6 24 -1 32 4 7 6 19 4 25 -3 7 2 15 11
19 13 4 14 10 5 26 -6 11 -8 25 -5 30 3 6 -5 21 -19 34 -32 29 -33 36 -2 30
20 -3 25 1 31 26 6 27 10 30 46 30 25 0 39 5 39 13 0 20 39 40 55 27 9 -8 14
-6 19 6 4 11 13 14 31 10 23 -6 24 -4 19 23 -5 24 -1 31 25 47 31 18 44 48 16
38 -10 -4 -15 0 -15 15 0 24 10 27 28 9 10 -10 15 -10 21 1 5 8 14 10 21 6 7
-4 16 -2 21 6 7 11 9 9 9 -5 0 -15 3 -17 11 -9 8 8 6 18 -6 37 -10 15 -14 30
-10 34 4 4 10 1 12 -5 3 -7 11 -13 19 -13 9 0 12 -5 8 -12 -4 -7 1 -5 12 4 14
14 16 21 6 30 -9 9 -12 9 -12 0 0 -20 -17 -13 -23 9 -5 18 -8 19 -26 7 -15 -9
-24 -9 -31 -2 -8 8 -5 13 13 18 19 4 25 14 30 46 3 22 12 46 20 54 12 12 13
24 6 57 -6 23 -12 46 -15 51 -3 5 4 17 15 27 12 10 21 27 21 37 0 28 12 42 43
49 18 5 27 14 27 27 0 11 8 22 20 25 11 3 20 9 20 13 0 5 -9 6 -20 3 -31 -8
-25 22 12 58 22 20 40 29 54 26 18 -3 23 2 28 26 3 16 6 40 6 53 0 14 6 24 15
24 8 0 12 -6 9 -13 -3 -8 2 -20 12 -27 14 -13 16 -11 14 15 -1 17 -1 32 0 35
1 3 3 21 4 40 1 24 7 36 18 38 12 2 16 12 15 35 -2 18 -6 37 -10 44 -4 6 -3
23 3 38 12 32 6 45 -18 38 -12 -3 -18 2 -19 16 -1 12 2 21 8 21 5 0 9 9 9 20
0 11 6 20 14 20 15 0 15 24 -1 120 -3 19 -5 45 -5 58 0 12 -5 22 -10 22 -6 0
-5 6 2 15 7 8 10 21 7 30 -4 8 -2 17 3 20 9 6 8 24 -3 43 -5 6 -4 12 2 12 5 0
11 12 13 28 2 19 9 28 26 30 13 2 19 8 16 14 -7 10 8 9 56 -3 9 -3 16 4 18 18
3 23 34 38 63 32 23 -5 61 21 55 37 -5 13 15 19 50 15 7 -1 14 8 17 19 3 12
13 20 25 20 12 0 23 4 26 9 4 5 17 8 31 6 18 -1 25 3 25 14 0 27 20 41 40 29
22 -14 54 -3 47 16 -4 9 4 15 24 18 19 3 29 0 29 -9 0 -14 51 -15 61 0 4 5 20
10 37 11 17 1 34 5 38 9 13 13 26 8 20 -8 -3 -8 -2 -15 2 -15 12 0 27 15 28
28 1 6 2 16 2 21 1 4 23 14 50 20 57 15 74 23 73 36 0 15 30 45 46 45 11 0 11
-4 2 -21 -10 -19 -8 -20 10 -14 15 5 21 2 21 -9 0 -20 14 -21 30 -2 7 9 25 14
46 11 27 -2 34 1 34 14 0 13 8 18 30 18 17 0 30 -4 30 -9 0 -4 6 -8 13 -8 7 0
18 -9 24 -19 8 -13 19 -18 32 -14 12 3 18 10 14 16 -3 5 -2 7 4 4 5 -3 27 -2
48 3 26 6 42 5 46 -2 4 -7 9 -6 13 3 3 8 4 5 3 -6 -2 -12 -10 -19 -21 -18 -13
1 -15 -2 -7 -10 7 -7 5 -14 -7 -23 -16 -12 -16 -14 3 -27 22 -17 45 -12 45 9
0 15 10 17 34 8 24 -9 19 -43 -9 -56 -17 -8 -23 -17 -20 -32 2 -12 4 -29 4
-39 1 -10 6 -15 11 -12 6 3 10 0 10 -9 0 -8 6 -17 13 -20 6 -3 2 -3 -10 0 -18
4 -23 1 -23 -15 0 -18 -3 -19 -30 -10 -16 6 -30 15 -30 19 0 4 -7 10 -15 14
-9 3 -15 0 -15 -10 0 -8 4 -13 8 -10 4 2 8 -4 8 -15 0 -10 -6 -19 -13 -19 -7
0 -18 -9 -25 -20 -16 -25 -36 -26 -55 -2 -10 12 -16 14 -19 5 -7 -16 -36 -17
-52 -1 -6 6 -14 9 -17 6 -3 -3 1 -13 10 -21 14 -15 13 -16 -12 -15 -34 2 -56
-4 -65 -17 -5 -6 -8 -6 -8 1 0 6 -12 11 -27 11 -43 0 -113 10 -120 17 -13 13
-35 6 -29 -10 5 -13 -1 -15 -39 -10 -27 3 -45 0 -45 -5 0 -6 -10 -8 -22 -4
-21 6 -22 5 -5 -8 21 -17 22 -28 2 -21 -8 3 -22 -2 -31 -11 -15 -14 -15 -18
-3 -26 8 -5 25 -9 38 -9 35 0 19 -11 -22 -15 -20 -1 -46 -12 -58 -24 -12 -11
-25 -18 -29 -16 -4 2 -20 -9 -35 -25 -16 -17 -25 -30 -21 -30 13 0 -19 -27
-54 -45 -19 -10 -43 -25 -54 -34 -19 -17 -41 -60 -37 -74 1 -5 -8 -24 -20 -43
-12 -19 -19 -38 -15 -41 6 -6 -73 -106 -103 -130 -8 -7 -11 -16 -8 -20 4 -4
-7 -22 -25 -40 -17 -18 -28 -33 -23 -33 5 0 -1 -7 -13 -16 -12 -8 -22 -21 -22
-29 0 -7 -6 -16 -13 -19 -9 -5 -9 -7 1 -12 6 -3 9 -10 6 -16 -4 -6 -1 -14 6
-18 8 -5 1 -18 -25 -45 -25 -25 -34 -39 -26 -44 8 -5 4 -20 -14 -52 -16 -30
-23 -55 -20 -75 13 -85 16 -118 8 -107 -4 6 -8 -31 -7 -84 1 -71 -2 -96 -12
-100 -8 -3 -11 -10 -8 -15 4 -6 10 -5 15 3 7 11 9 9 9 -7 0 -11 -5 -25 -11
-31 -8 -8 -8 -17 0 -31 14 -26 15 -75 1 -67 -5 3 -10 2 -10 -4 0 -5 5 -13 10
-16 8 -5 7 -11 -1 -21 -6 -8 -8 -14 -3 -14 4 0 3 -5 -4 -12 -15 -15 -16 -32
-2 -23 7 4 9 -2 4 -19 -3 -15 -1 -32 6 -40 9 -11 8 -21 -5 -45 -8 -17 -12 -31
-8 -31 5 0 9 -60 10 -133 1 -72 4 -148 7 -167 3 -19 8 -57 12 -85 4 -27 11
-55 15 -61 6 -7 1 -21 -11 -37 -11 -14 -20 -31 -20 -37 0 -7 -18 11 -41 39
-33 41 -44 49 -55 40 -20 -16 -19 -89 1 -89 9 0 21 -11 27 -25 6 -14 15 -25
19 -25 4 0 19 -21 34 -47 25 -42 27 -53 22 -114 -3 -37 -10 -76 -16 -87 -7
-14 -7 -19 3 -19 7 0 21 23 30 52 8 28 22 60 30 70 14 19 16 19 45 -15 17 -19
33 -52 37 -72 4 -21 13 -43 20 -49 8 -6 11 -15 8 -20 -3 -5 1 -7 8 -4 10 4 14
-11 16 -60 1 -39 -2 -65 -8 -65 -18 0 -10 -22 10 -27 11 -3 20 -10 20 -16 0
-6 10 -21 21 -34 22 -23 26 -75 16 -220 -2 -24 1 -43 7 -43 11 0 -2 -14 -15
-16 -5 -1 -13 -2 -19 -3 -5 0 -10 -7 -10 -15 0 -15 49 -36 85 -36 32 0 42 -31
61 -190 4 -30 10 -60 15 -65 4 -6 6 -30 5 -53 -2 -23 1 -42 7 -42 5 0 4 -7 -3
-15 -8 -9 -10 -25 -5 -42 11 -41 17 -75 17 -100 0 -12 6 -24 14 -27 8 -3 14
-10 14 -15 0 -6 -7 -8 -15 -5 -21 9 -19 -25 3 -42 16 -13 16 -13 -3 -14 -17 0
-17 -2 -5 -10 12 -8 13 -12 1 -19 -10 -7 -11 -13 -1 -31 9 -18 9 -24 0 -30 -9
-6 -8 -12 6 -26 20 -20 19 -71 -5 -144 -18 -57 -14 -65 56 -112 107 -70 100
-74 96 63 -4 129 -2 131 49 102 24 -14 32 -15 35 -5 4 10 8 10 21 0 13 -11 15
-10 9 5 -11 30 26 20 110 -29 43 -26 116 -67 163 -92 47 -25 99 -54 115 -64
17 -10 41 -22 55 -28 14 -6 34 -14 45 -19 75 -33 131 -41 254 -37 176 6 298
30 391 76 41 21 111 56 154 78 73 37 106 44 106 21 0 -5 7 -9 15 -9 8 0 15 -4
15 -10 0 -5 -5 -10 -12 -10 -6 0 -3 -7 8 -15 17 -13 17 -14 2 -15 -22 0 -24
-20 -2 -20 8 0 13 -4 10 -8 -3 -5 1 -9 8 -9 9 0 13 10 11 24 -1 14 3 27 11 30
7 2 10 11 8 18 -4 8 7 20 25 29 27 14 30 14 25 1 -4 -8 -1 -15 5 -15 6 0 11
10 11 23 0 13 4 27 9 33 4 5 16 49 26 97 17 82 17 89 2 105 -14 14 -17 14 -17
1 0 -8 -14 -23 -30 -33 -17 -9 -45 -32 -63 -49 -17 -18 -61 -57 -97 -87 -36
-30 -68 -60 -72 -66 -4 -7 -27 -22 -50 -34 -24 -12 -45 -26 -48 -30 -3 -4 -22
-11 -44 -14 -21 -4 -42 -9 -47 -12 -13 -8 -229 -20 -229 -13 0 3 -13 4 -30 1
-65 -9 -290 60 -290 89 0 5 -11 14 -25 19 -14 5 -25 14 -25 21 0 6 -6 9 -12 6
-7 -2 -21 5 -30 16 -10 11 -18 17 -18 12 0 -4 -9 4 -21 19 -11 14 -26 26 -33
26 -7 0 -22 9 -34 20 -21 20 -27 18 -22 -5 1 -5 -9 0 -22 13 -14 12 -31 22
-39 22 -8 0 -25 10 -39 23 -14 12 -38 28 -53 35 -17 7 -25 17 -21 24 4 6 3 8
-3 5 -6 -4 -23 5 -39 19 -114 103 -156 149 -147 158 4 3 1 6 -6 6 -27 0 -140
200 -155 275 -1 6 -5 15 -9 21 -15 25 -25 150 -22 275 1 73 -1 146 -6 163 -4
17 -10 75 -14 130 -3 54 -9 106 -14 115 -5 9 -7 28 -4 41 2 14 -4 49 -15 76
-11 29 -17 65 -14 83 3 20 0 31 -7 31 -7 0 -10 4 -6 9 3 5 0 13 -6 17 -8 4 -8
8 0 13 7 5 6 15 -4 34 -17 33 -13 34 16 5 18 -19 21 -20 15 -5 -3 10 -6 25 -6
33 0 9 -4 12 -10 9 -7 -4 -7 3 0 19 12 32 -3 35 -17 4 -8 -19 -10 -20 -16 -5
-3 9 -2 17 4 17 6 0 7 5 4 10 -3 6 1 10 9 10 10 0 13 6 10 15 -4 8 -1 15 5 15
6 0 10 4 8 9 -1 5 7 16 17 24 11 8 16 19 12 26 -6 9 -12 7 -22 -6 -13 -16 -13
-15 -4 11 6 16 8 31 5 34 -2 3 0 11 6 19 7 8 7 13 2 13 -13 0 -7 73 7 100 6
11 18 20 28 21 11 0 12 2 4 6 -17 6 4 33 25 33 13 0 13 -3 3 -15 -7 -8 -9 -15
-4 -15 5 0 -2 -10 -16 -21 -14 -11 -20 -18 -13 -15 6 4 14 2 17 -3 3 -5 0 -11
-8 -14 -7 -3 -13 -16 -12 -29 1 -13 -3 -29 -8 -37 -7 -9 1 -7 18 5 16 10 46
19 65 20 28 0 35 5 33 17 -2 10 4 17 13 17 8 0 15 4 15 10 0 5 6 7 14 4 18 -7
52 26 36 36 -7 4 2 10 22 14 26 5 30 9 18 16 -8 5 -13 10 -10 10 3 1 27 3 53
5 26 3 55 11 63 20 13 12 33 14 112 9 53 -3 129 -6 167 -7 70 -1 77 3 64 38
-2 6 1 10 6 10 5 0 9 -4 7 -8 -1 -5 2 -6 7 -3 15 10 41 -5 41 -23 1 -14 2 -14
11 2 6 9 7 27 3 40 -4 12 -9 27 -10 32 -7 34 -12 42 -38 58 -15 10 -30 16 -32
14 -7 -7 8 -37 16 -32 4 2 18 -7 31 -22 l24 -26 -25 14 c-14 8 -35 23 -47 33
-20 17 -37 19 -123 17 -56 -1 -100 3 -100 8 0 13 -40 1 -40 -13 -1 -6 -6 -5
-13 4 -13 16 -30 18 -66 6 -14 -5 -27 -4 -34 3 -14 14 -56 -10 -138 -81 -37
-32 -70 -58 -73 -58 -4 0 -4 11 -2 23 2 13 0 30 -4 37 -5 8 -4 22 1 32 7 14 6
18 -6 18 -8 0 -15 -5 -15 -11 0 -5 -4 -8 -9 -5 -16 10 -1 45 17 39 12 -5 14
-1 10 15 -4 12 -2 22 3 22 5 0 9 4 9 10 0 5 -7 7 -15 4 -8 -4 -15 -2 -15 4 0
5 10 12 22 15 17 5 19 9 10 20 -9 11 -9 22 -1 46 9 25 9 42 -1 71 -15 44 -8
70 17 70 17 -1 17 -1 0 -14 -9 -7 -17 -22 -16 -32 0 -17 1 -17 9 2 4 12 16 24
24 27 12 5 15 14 10 34 -4 16 -11 33 -15 39 -5 6 -7 49 -5 95 2 46 0 92 -5
101 -7 12 -6 18 2 18 6 0 9 9 6 20 -3 12 4 29 19 45 40 44 64 104 29 75 -22
-18 -18 3 4 27 11 12 17 24 13 29 -4 4 -2 4 4 1 6 -4 24 5 39 19 15 14 44 28
64 31 49 6 92 23 86 34 -3 4 3 8 12 9 10 0 68 3 128 5 126 5 188 10 201 17 5
2 54 5 109 6 55 2 112 5 128 8 15 3 27 1 27 -5 0 -6 48 -9 134 -8 137 2 174
12 161 44 -3 9 0 13 7 10 7 -2 12 -10 10 -17 -1 -7 8 -11 25 -9 16 1 37 -2 47
-6 13 -6 21 -4 24 3 2 6 11 8 19 5 13 -5 15 -2 10 11 -4 10 -3 15 3 11 6 -3
10 -1 10 6 0 7 8 5 20 -6 18 -17 20 -17 14 -2 -4 13 -1 17 14 17 12 0 24 5 27
10 10 17 37 -11 32 -32 -3 -11 0 -18 9 -18 8 0 14 9 14 21 0 11 4 18 9 15 5
-3 14 1 21 9 7 8 17 15 22 15 5 0 2 -8 -7 -17 -16 -15 -16 -18 -1 -28 9 -7 13
-15 9 -18 -3 -4 -1 -7 5 -7 7 0 12 -7 12 -16 0 -8 5 -12 11 -9 6 4 8 13 5 21
-8 22 4 16 26 -11 19 -24 46 -36 32 -14 -11 18 37 0 73 -27 17 -13 35 -33 38
-44 7 -22 20 -26 30 -10 4 7 21 -2 43 -20 57 -48 61 -50 70 -50 10 0 54 -94
57 -120 3 -28 17 -60 27 -60 5 0 7 -4 4 -9 -3 -5 -1 -24 6 -42 9 -25 9 -34 0
-37 -7 -2 -9 -9 -5 -15 4 -7 8 -41 9 -77 1 -36 4 -76 7 -90 2 -14 5 -29 6 -35
1 -5 6 -3 11 5 8 13 10 13 10 -2 0 -9 -6 -19 -12 -22 -7 -3 -3 -3 8 -1 16 4
23 0 27 -17 4 -12 2 -25 -3 -28 -6 -4 -6 -18 -1 -38 6 -19 6 -34 0 -37 -12 -8
-12 -55 1 -55 17 0 11 -18 -7 -22 -14 -3 -15 -5 -2 -18 8 -8 14 -26 14 -39 0
-14 6 -26 13 -29 8 -2 11 6 8 25 -2 15 -1 21 1 13 3 -8 11 -18 19 -23 10 -6
10 -14 3 -36 -7 -19 -7 -36 -1 -48 5 -10 10 -36 11 -58 4 -79 8 -104 21 -120
11 -13 15 -13 21 -3 6 9 9 6 9 -10 0 -16 -4 -21 -12 -16 -10 6 -10 4 0 -8 9
-11 11 -54 8 -166 -2 -83 -7 -155 -10 -161 -4 -5 -8 -36 -11 -68 -3 -46 -2
-51 4 -24 5 18 13 36 18 40 5 3 17 32 27 63 10 32 22 60 27 63 14 9 44 79 41
97 -2 9 6 21 16 27 14 7 18 18 15 36 -4 18 -1 25 11 25 16 0 15 31 -4 92 -5
17 -5 30 1 33 5 4 6 18 3 33 -5 22 -3 24 6 12 10 -12 11 -12 4 5 -4 11 -9 45
-9 75 -1 30 -5 65 -9 78 -5 14 -3 22 4 22 7 0 9 7 6 16 -3 8 -2 12 4 9 11 -7
14 8 3 18 -3 4 -8 35 -11 68 -3 47 -1 59 9 54 8 -6 10 -4 4 5 -5 8 -10 25 -12
39 -9 75 -21 149 -28 170 -5 16 -4 21 4 17 17 -11 13 3 -9 34 -15 21 -17 29
-8 33 10 3 8 10 -6 25 -13 15 -16 29 -12 47 4 14 11 23 16 20 6 -3 10 -1 10 4
0 6 -4 11 -9 11 -5 0 -11 7 -14 14 -4 11 -1 13 11 9 15 -6 15 -4 -2 15 -11 13
-19 39 -20 68 -2 35 -7 49 -20 54 -10 3 -18 8 -18 10 -2 10 24 51 29 46 3 -3
15 0 27 6 27 16 39 16 48 3 5 -6 8 -6 8 3 0 6 7 12 15 12 8 0 15 -5 15 -10 0
-6 11 -15 25 -20 14 -5 25 -15 25 -22 0 -11 2 -10 8 0 10 15 42 6 42 -12 0 -6
10 -17 22 -25 21 -13 22 -14 4 -21 -17 -6 -17 -8 8 -33 14 -14 26 -31 26 -38
0 -7 9 -9 24 -5 40 10 55 -2 51 -40 -2 -23 1 -34 10 -34 7 0 15 -10 19 -22 8
-33 7 -40 -4 -33 -18 11 -30 -5 -18 -25 9 -14 9 -22 0 -33 -10 -12 -9 -16 8
-20 24 -6 27 -27 4 -27 -11 0 -14 -6 -8 -22 4 -13 9 -25 13 -28 15 -12 10 -40
-10 -54 -19 -13 -21 -19 -11 -40 12 -28 5 -41 -15 -25 -10 9 -13 7 -13 -7 0
-11 -7 -32 -15 -48 -8 -15 -15 -38 -15 -50 0 -13 -15 -36 -35 -53 -46 -41 -39
-63 22 -63 37 0 44 -3 39 -16 -3 -9 -6 -21 -6 -27 0 -7 -7 -4 -14 6 -8 10 -20
15 -30 11 -24 -9 -20 -20 13 -34 21 -8 28 -17 24 -28 -4 -9 -2 -13 4 -9 12 7
23 -14 23 -43 0 -22 -32 -22 -42 0 -5 11 -7 9 -7 -7 -1 -12 -9 -24 -21 -28
-11 -3 -20 -15 -20 -26 0 -21 16 -26 23 -6 2 6 3 4 2 -5 -2 -10 1 -21 6 -24 5
-3 9 -16 9 -28 0 -17 9 -27 29 -36 24 -10 52 -42 39 -46 -2 0 3 -8 11 -17 7
-9 11 -23 8 -31 -3 -8 -1 -17 6 -20 7 -2 4 -5 -7 -5 -14 -1 -16 -4 -7 -14 12
-15 -3 -37 -25 -37 -6 0 -14 -6 -17 -14 -4 -9 5 -16 26 -21 l32 -6 -35 -17
c-19 -10 -35 -24 -34 -32 1 -25 16 -50 25 -44 5 3 9 -2 9 -10 0 -9 8 -16 18
-16 18 0 42 -37 42 -65 0 -8 -6 -15 -13 -15 -8 0 -22 -9 -32 -20 -18 -19 -17
-20 1 -20 11 0 26 -6 32 -12 10 -10 14 -8 18 8 4 14 13 20 27 19 17 -1 23 -9
24 -31 1 -16 0 -23 -3 -16 -9 20 -27 14 -21 -8 3 -10 0 -21 -7 -24 -6 -2 3 -5
20 -5 27 -1 31 -4 27 -24 -4 -18 2 -24 28 -32 18 -6 35 -16 37 -24 3 -10 0
-12 -11 -8 -9 3 -18 1 -21 -6 -2 -7 -5 -4 -5 6 -1 21 -21 23 -21 2 0 -8 -4
-15 -10 -15 -5 0 -10 9 -10 20 0 11 -4 20 -10 20 -5 0 -10 -14 -10 -30 0 -21
6 -33 19 -38 11 -4 20 -11 21 -17 2 -36 53 -104 72 -97 5 1 22 -5 38 -13 37
-19 51 -19 26 0 -20 15 -20 15 0 15 21 0 44 -17 44 -33 0 -4 -4 -5 -10 -2 -5
3 -10 2 -10 -3 0 -16 33 -24 42 -10 5 7 11 25 14 40 9 40 64 51 64 13 0 -17
-27 -27 -34 -12 -3 7 -3 1 0 -12 5 -19 3 -23 -10 -18 -10 4 -16 1 -16 -8 0 -8
4 -15 9 -15 14 0 9 -43 -5 -55 -17 -15 -24 -75 -8 -75 21 0 25 -17 8 -34 -8
-9 -12 -20 -9 -26 3 -5 2 -10 -4 -10 -5 0 -11 14 -13 32 -2 17 -10 33 -18 36
-12 4 -13 2 -2 -9 16 -17 15 -29 -2 -29 -8 0 -17 8 -19 18 -4 13 -5 11 -6 -5
0 -13 3 -23 8 -23 6 0 10 -8 10 -17 0 -10 2 -30 4 -45 2 -15 1 -25 -4 -23 -4
3 -10 1 -14 -5 -4 -6 6 -10 24 -10 17 0 31 -4 31 -8 0 -4 11 -9 25 -10 14 -1
25 3 25 9 0 5 5 7 10 4 6 -3 10 -16 9 -28 0 -12 -3 -17 -5 -10 -7 17 -34 4
-27 -13 3 -8 13 -14 24 -14 17 0 41 -29 38 -47 -4 -21 2 -33 16 -33 19 0 19
-19 0 -26 -8 -4 -15 -14 -15 -23 -1 -20 -24 -51 -39 -51 -6 0 -11 -7 -11 -16
0 -11 -6 -14 -20 -9 -11 4 -20 2 -20 -4 0 -6 5 -11 10 -11 16 0 11 -26 -8 -43
-10 -10 -33 -17 -50 -17 -18 0 -32 -5 -32 -12 0 -6 -8 -20 -17 -30 -14 -16
-15 -24 -5 -51 9 -26 10 -83 3 -149 -1 -4 -14 -14 -29 -22 -31 -16 -36 -40
-16 -71 19 -27 17 -37 -6 -30 -11 4 -20 2 -20 -4 0 -6 5 -11 10 -11 6 0 10 -7
10 -15 0 -14 -12 -19 -32 -16 -5 0 -8 -5 -8 -13 0 -14 -56 -39 -70 -31 -4 2
-15 -4 -25 -15 -10 -11 -24 -20 -32 -20 -16 0 -17 -12 -1 -28 9 -9 9 -12 0
-12 -7 0 -12 -6 -12 -14 0 -8 -6 -16 -13 -19 -7 -3 -5 -8 8 -13 27 -10 33 -21
27 -50 -3 -19 -7 -22 -18 -13 -8 6 -14 7 -14 2 0 -5 -17 -17 -39 -26 -32 -15
-37 -21 -33 -42 3 -18 0 -25 -11 -25 -22 0 -65 -45 -73 -75 -3 -14 -10 -25
-15 -25 -5 0 -9 -6 -9 -13 0 -7 -13 -26 -30 -42 -16 -16 -30 -32 -30 -36 0
-16 -51 -58 -85 -70 -19 -7 -36 -20 -36 -29 -1 -8 -5 -1 -9 15 -11 44 -11 67
0 60 6 -3 10 -1 10 5 0 6 -7 13 -15 16 -8 4 -13 10 -10 14 3 5 -5 20 -17 34
-22 24 -29 26 -157 30 -86 4 -140 10 -151 18 -9 7 -57 43 -106 80 -49 37 -92
64 -97 59 -4 -4 -10 -36 -13 -72 -3 -35 -8 -68 -11 -73 -4 -5 0 -6 7 -1 12 7
30 -9 122 -113 34 -38 61 -54 150 -90 28 -11 32 -21 43 -100 3 -29 2 -41 -5
-37 -16 10 -13 3 43 -107 51 -99 91 -196 144 -353 19 -54 24 -91 24 -165 0
-52 -2 -106 -4 -120 -3 -14 -10 -54 -16 -90 -6 -36 -21 -101 -32 -145 -12 -44
-22 -100 -22 -125 0 -89 22 -244 49 -345 3 -11 19 -92 35 -180 16 -88 32 -167
36 -175 3 -8 5 -25 4 -37 -1 -13 2 -23 8 -23 7 0 9 -10 5 -25 -4 -16 -2 -25 6
-25 6 0 10 -10 8 -24 -2 -16 6 -31 22 -45 16 -14 19 -19 8 -15 -23 8 -25 -21
-2 -30 10 -4 13 -13 9 -27 -5 -15 -1 -25 14 -35 12 -9 21 -21 20 -27 0 -9 -2
-9 -6 1 -7 17 -23 15 -23 -3 0 -8 4 -15 10 -15 5 0 14 -9 20 -20 9 -16 8 -18
-5 -14 -21 8 -19 -13 2 -25 14 -7 15 -12 5 -24 -29 -35 4 -38 391 -37 276 1
377 5 381 13 3 9 5 8 5 0 1 -10 73 -13 326 -13 l325 0 0 3750 0 3750 -3000 0
-3000 0 0 -3750z m2580 3576 c0 -2 -7 -6 -15 -10 -8 -3 -15 -1 -15 4 0 6 7 10
15 10 8 0 15 -2 15 -4z m57 -68 c-3 -8 -6 -5 -6 6 -1 11 2 17 5 13 3 -3 4 -12
1 -19z m-391 -62 c15 -16 18 -26 6 -26 -4 0 -13 9 -20 20 -14 23 -7 26 14 6z
m857 -181 c-3 -9 -8 -14 -10 -11 -3 3 -2 9 2 15 9 16 15 13 8 -4z m-1313 -61
c0 -8 -5 -12 -10 -9 -6 4 -8 11 -5 16 9 14 15 11 15 -7z m1997 -69 c0 -7 -13
-5 -32 5 -17 8 -32 20 -32 26 0 8 11 6 32 -4 17 -9 32 -21 32 -27z m-1330 9
c-3 -3 -12 -4 -19 -1 -8 3 -5 6 6 6 11 1 17 -2 13 -5z m1398 -44 c3 -6 -1 -7
-9 -4 -18 7 -21 14 -7 14 6 0 13 -4 16 -10z m318 -225 c16 -20 27 -37 25 -38
-1 -1 -27 22 -56 51 -39 39 -46 49 -25 38 15 -8 41 -31 56 -51z m-2530 40 c4
-8 2 -17 -3 -20 -6 -4 -10 3 -10 14 0 25 6 27 13 6z m20 -80 c-3 -9 -8 -14
-10 -11 -3 3 -2 9 2 15 9 16 15 13 8 -4z m2607 -60 c0 17 2 17 10 5 6 -10 6
-16 0 -18 -6 -2 -8 -8 -4 -13 3 -5 1 -9 -5 -9 -6 0 -15 9 -21 19 -15 29 -12
38 5 15 14 -19 14 -19 15 1z m57 1 c-3 -8 -2 -16 3 -18 4 -2 2 -9 -6 -16 -11
-10 -14 -10 -14 2 0 18 10 46 17 46 3 0 3 -6 0 -14z m23 -271 c0 -8 -4 -15
-10 -15 -5 0 -10 7 -10 15 0 8 5 15 10 15 6 0 10 -7 10 -15z m-925 -95 c3 -5
1 -10 -4 -10 -6 0 -11 5 -11 10 0 6 2 10 4 10 3 0 8 -4 11 -10z m960 -10 c3
-6 -1 -7 -9 -4 -18 7 -21 14 -7 14 6 0 13 -4 16 -10z m59 -155 c3 -9 0 -15 -9
-15 -9 0 -12 6 -9 15 4 8 7 15 9 15 2 0 5 -7 9 -15z m350 -161 c3 -8 2 -12 -4
-9 -6 3 -10 10 -10 16 0 14 7 11 14 -7z m-3427 -10 c-3 -3 -12 -4 -19 -1 -8 3
-5 6 6 6 11 1 17 -2 13 -5z m3523 -100 c0 -14 -3 -14 -15 -4 -8 7 -15 14 -15
16 0 2 7 4 15 4 8 0 15 -7 15 -16z m-3638 -236 c-9 -9 -12 -7 -12 12 0 19 3
21 12 12 9 -9 9 -15 0 -24z m1673 -297 c3 -5 1 -12 -5 -16 -5 -3 -10 1 -10 9
0 18 6 21 15 7z m-691 -52 c-6 -11 -24 -2 -24 11 0 5 7 7 15 4 8 -4 12 -10 9
-15z m627 4 c13 -16 12 -17 -3 -4 -10 7 -18 15 -18 17 0 8 8 3 21 -13z m1989
-179 c0 -2 -8 -8 -18 -13 -13 -7 -19 -6 -19 2 0 7 -4 20 -8 31 -8 18 -7 18 18
1 15 -9 27 -19 27 -21z m-70 -24 c0 -5 -4 -10 -10 -10 -5 0 -10 5 -10 10 0 6
5 10 10 10 6 0 10 -4 10 -10z m-3823 -512 c-3 -8 -6 -5 -6 6 -1 11 2 17 5 13
3 -3 4 -12 1 -19z m4053 -188 c0 -5 -2 -10 -4 -10 -3 0 -8 5 -11 10 -3 6 -1
10 4 10 6 0 11 -4 11 -10z m249 -180 c11 0 21 -35 12 -47 -3 -6 -18 -12 -33
-15 -21 -4 -26 -1 -25 13 1 10 5 17 10 16 12 -3 17 42 5 49 -4 3 -5 10 -2 16
5 7 10 3 15 -10 5 -12 12 -22 18 -22z m-4388 -236 c11 -14 10 -15 -11 -12 -13
1 -25 9 -28 16 -5 17 23 15 39 -4z m59 12 c0 -3 -4 -8 -10 -11 -5 -3 -10 -1
-10 4 0 6 5 11 10 11 6 0 10 -2 10 -4z m25 -26 c3 -6 -4 -10 -17 -10 -18 0
-20 2 -8 10 19 12 18 12 25 0z m45 -6 c0 -9 -5 -14 -12 -12 -18 6 -21 28 -4
28 9 0 16 -7 16 -16z m4210 -2 c0 -4 -9 -8 -20 -9 -11 -1 -20 2 -20 8 0 5 9 9
20 9 11 0 20 -4 20 -8z m-3980 -767 c0 -8 -4 -15 -10 -15 -5 0 -10 7 -10 15 0
8 5 15 10 15 6 0 10 -7 10 -15z m3870 -41 c0 -7 -10 -9 -25 -6 -14 2 -25 8
-25 13 0 5 11 8 25 7 14 -1 25 -8 25 -14z m-3599 -437 c-10 -9 -11 -8 -5 6 3
10 9 15 12 12 3 -3 0 -11 -7 -18z m2971 -192 c3 -14 1 -25 -3 -25 -5 0 -9 11
-9 25 0 14 2 25 4 25 2 0 6 -11 8 -25z m48 -45 c0 -5 -2 -10 -4 -10 -3 0 -8 5
-11 10 -3 6 -1 10 4 10 6 0 11 -4 11 -10z m-95 -370 c3 -5 1 -10 -4 -10 -6 0
-11 5 -11 10 0 6 2 10 4 10 3 0 8 -4 11 -10z m-10 -680 c3 -5 1 -10 -4 -10 -6
0 -11 5 -11 10 0 6 2 10 4 10 3 0 8 -4 11 -10z m5 -54 c0 -3 -4 -8 -10 -11 -5
-3 -10 -1 -10 4 0 6 5 11 10 11 6 0 10 -2 10 -4z m37 -578 c-3 -8 -6 -5 -6 6
-1 11 2 17 5 13 3 -3 4 -12 1 -19z m-1310 -20 c-3 -8 -6 -5 -6 6 -1 11 2 17 5
13 3 -3 4 -12 1 -19z m2059 -495 c-11 -11 -19 6 -11 24 8 17 8 17 12 0 3 -10
2 -21 -1 -24z m13 -68 c0 -5 -4 -3 -9 5 -5 8 -9 22 -9 30 0 16 17 -16 18 -35z
m61 2 c0 -5 -4 -5 -10 -2 -5 3 -10 14 -10 23 0 15 2 15 10 2 5 -8 10 -19 10
-23z m87 -13 c-3 -3 -12 -4 -19 -1 -8 3 -5 6 6 6 11 1 17 -2 13 -5z m-57 -17
c-27 -15 -36 -14 -25 2 3 6 16 11 28 11 21 0 21 -1 -3 -13z"/>
<path d="M2750 7269 c0 -5 9 -9 20 -9 11 0 20 2 20 4 0 2 -9 6 -20 9 -11 3
-20 1 -20 -4z"/>
<path d="M2790 7225 c0 -21 13 -25 28 -9 7 8 11 14 10 15 -26 7 -38 5 -38 -6z"/>
<path d="M2717 7003 c-7 -11 10 -40 18 -31 4 4 3 14 -3 24 -5 9 -12 12 -15 7z"/>
<path d="M3325 6109 c-15 -7 -12 -8 13 -3 20 3 32 1 32 -5 0 -6 4 -11 10 -11
5 0 7 7 4 15 -7 17 -29 18 -59 4z"/>
<path d="M1468 5813 c6 -2 18 -2 25 0 6 3 1 5 -13 5 -14 0 -19 -2 -12 -5z"/>
<path d="M1241 5440 c0 -9 4 -21 11 -28 8 -8 8 -15 -2 -27 -7 -8 -10 -18 -7
-21 5 -6 57 65 57 78 0 5 -4 8 -10 8 -5 0 -10 -9 -10 -20 0 -23 -27 -17 -33 8
-4 14 -5 14 -6 2z"/>
<path d="M3980 5300 c0 -5 -7 -10 -16 -10 -8 0 -13 -3 -11 -7 3 -5 -42 -9
-100 -9 -90 -1 -109 -5 -134 -23 -15 -11 -35 -21 -43 -21 -18 0 -27 -25 -14
-38 8 -8 7 -13 -5 -18 -29 -11 -19 -24 13 -17 19 3 30 1 30 -6 0 -6 -4 -11
-10 -11 -5 0 -10 -4 -10 -9 0 -7 46 -8 75 0 6 1 18 -1 28 -6 9 -4 30 -4 45 -1
23 6 93 15 142 18 8 1 39 0 68 0 52 -2 55 -4 115 -67 45 -47 68 -65 87 -65 14
0 32 -6 39 -12 10 -11 11 -7 5 17 -4 17 -11 32 -16 33 -4 2 -8 12 -8 22 0 10
-5 22 -10 25 -6 4 -10 12 -9 18 1 7 1 17 0 24 -1 17 -108 135 -134 150 -29 16
-40 16 -30 1 4 -7 -5 -5 -20 5 -25 16 -26 16 -20 0 6 -17 5 -17 -14 0 -22 19
-43 23 -43 7z m-240 -64 c0 -2 -7 -6 -15 -10 -8 -3 -15 -1 -15 4 0 6 7 10 15
10 8 0 15 -2 15 -4z"/>
<path d="M2983 5220 c0 -18 4 -26 8 -19 5 8 9 6 12 -7 2 -10 3 -6 0 11 -5 41
-20 52 -20 15z"/>
<path d="M3630 5219 c0 -5 5 -7 10 -4 6 3 10 8 10 11 0 2 -4 4 -10 4 -5 0 -10
-5 -10 -11z"/>
<path d="M3630 5190 c0 -5 5 -10 10 -10 6 0 10 5 10 10 0 6 -4 10 -10 10 -5 0
-10 -4 -10 -10z"/>
<path d="M4653 5044 c-15 -16 -16 -24 -4 -24 8 0 24 30 19 35 -2 2 -9 -3 -15
-11z"/>
<path d="M985 5019 c-4 -6 -13 -8 -21 -5 -7 3 -16 1 -18 -3 -3 -4 -29 -6 -58
-3 -51 4 -52 4 -36 -14 14 -14 21 -15 29 -7 9 9 18 9 32 1 12 -6 22 -7 26 0 3
5 17 9 30 8 15 -1 25 5 26 17 4 19 -1 22 -10 6z"/>
<path d="M4655 4996 c12 -9 16 -20 12 -36 -6 -22 -5 -22 13 -4 15 16 16 21 4
30 -7 6 -11 14 -7 17 3 4 -4 7 -17 7 -22 0 -23 -1 -5 -14z"/>
<path d="M2320 4989 c0 -5 5 -7 10 -4 6 3 10 8 10 11 0 2 -4 4 -10 4 -5 0 -10
-5 -10 -11z"/>
<path d="M974 4974 c-17 -14 -17 -15 -1 -10 10 3 23 6 28 6 5 0 9 5 9 10 0 14
-13 12 -36 -6z"/>
<path d="M2789 4976 c-1 -3 -2 -12 -3 -18 -1 -15 -76 -24 -76 -9 0 5 8 12 18
14 13 4 12 5 -4 6 -12 0 -25 -7 -28 -16 -5 -12 -9 -14 -18 -5 -14 14 -32 16
-24 3 3 -4 -6 -13 -20 -20 -32 -14 -32 -14 -37 7 -3 12 -5 11 -6 -6 0 -13 -5
-20 -11 -17 -5 3 -15 -3 -22 -14 -9 -15 -15 -17 -25 -9 -11 9 -10 13 4 24 16
12 14 13 -12 2 -16 -6 -37 -18 -45 -26 -13 -12 -13 -13 5 -12 11 1 24 2 28 1
11 -1 -41 -43 -75 -60 -28 -14 -36 -35 -19 -45 5 -3 46 -8 90 -10 l81 -4 -25
20 c-30 24 -31 32 -4 59 26 26 39 21 53 -21 14 -44 46 -60 118 -60 54 0 57 2
78 35 15 24 21 47 18 70 -4 33 -3 34 27 28 29 -5 116 -58 123 -75 2 -4 10 -8
18 -8 8 0 14 -9 14 -21 0 -21 21 -22 27 -2 5 14 -55 83 -72 83 -7 0 -15 4 -17
8 -4 11 -94 52 -113 52 -8 0 -15 5 -15 10 0 25 95 -6 163 -53 39 -27 49 -11
12 19 -45 36 -202 90 -206 70z m-29 -116 c0 -14 -15 -19 -29 -10 -17 10 -5 31
14 23 8 -3 15 -9 15 -13z"/>
<path d="M3710 4956 c-39 -11 -160 -81 -160 -93 0 -2 3 -2 8 0 4 2 39 18 77
36 39 18 78 37 87 42 10 5 27 9 38 9 11 0 20 5 20 10 0 12 -13 12 -70 -4z"/>
<path d="M4695 4950 c3 -5 11 -10 16 -10 6 0 7 5 4 10 -3 6 -11 10 -16 10 -6
0 -7 -4 -4 -10z"/>
<path d="M3849 4945 c-3 -3 -32 -7 -64 -10 -33 -3 -69 -11 -80 -18 -93 -54
-143 -93 -132 -104 5 -4 11 -3 15 3 7 11 113 68 116 62 0 -2 9 -25 18 -53 13
-37 14 -53 6 -63 -9 -11 -3 -13 33 -11 24 1 50 7 57 12 8 7 20 6 36 -3 13 -7
29 -9 36 -5 25 15 118 38 180 44 48 4 65 10 65 21 0 8 -9 16 -20 19 -11 2 -31
12 -44 22 -13 11 -29 19 -36 19 -7 0 -18 7 -25 15 -6 8 -15 14 -18 13 -4 -1
-17 3 -30 10 -12 7 -35 15 -50 17 -15 2 -34 6 -43 9 -8 4 -17 4 -20 1z m-11
-83 c2 -7 -3 -12 -12 -12 -9 0 -16 7 -16 16 0 17 22 14 28 -4z m137 -4 c33
-15 32 -43 -2 -56 -16 -5 -35 -13 -44 -17 -15 -6 -15 -2 -2 39 9 25 17 46 19
46 2 0 15 -5 29 -12z"/>
<path d="M795 4870 c-3 -6 1 -7 9 -4 18 7 21 14 7 14 -6 0 -13 -4 -16 -10z"/>
<path d="M3182 4830 c0 -19 2 -27 5 -17 2 9 2 25 0 35 -3 9 -5 1 -5 -18z"/>
<path d="M3177 4780 c-20 -62 -25 -91 -14 -87 18 6 35 60 27 82 -6 16 -9 17
-13 5z"/>
<path d="M2660 4739 c0 -5 5 -7 10 -4 6 3 10 8 10 11 0 2 -4 4 -10 4 -5 0 -10
-5 -10 -11z"/>
<path d="M1035 4690 c3 -5 10 -10 16 -10 5 0 9 5 9 10 0 6 -7 10 -16 10 -8 0
-12 -4 -9 -10z"/>
<path d="M997 4654 c-8 -8 3 -34 14 -34 11 0 12 27 0 34 -4 3 -11 3 -14 0z"/>
<path d="M1020 4564 c0 -8 5 -12 10 -9 6 3 10 1 10 -6 0 -7 2 -10 5 -7 8 7 -5
38 -16 38 -5 0 -9 -7 -9 -16z"/>
<path d="M3127 4478 c-2 -7 -4 -15 -3 -18 0 -3 -8 -17 -20 -32 -11 -15 -20
-37 -18 -50 1 -13 3 -26 3 -30 2 -20 31 -5 37 20 3 15 9 36 12 47 13 44 4 100
-11 63z"/>
<path d="M3017 4383 c-19 -35 -15 -42 9 -18 9 8 14 23 12 33 -3 13 -8 9 -21
-15z"/>
<path d="M4910 4340 c0 -5 5 -10 10 -10 6 0 10 5 10 10 0 6 -4 10 -10 10 -5 0
-10 -4 -10 -10z"/>
<path d="M1910 4270 c0 -5 5 -10 11 -10 5 0 7 5 4 10 -3 6 -8 10 -11 10 -2 0
-4 -4 -4 -10z"/>
<path d="M1894 4225 c-4 -9 -14 -13 -23 -11 -9 3 -22 2 -30 -3 -11 -7 -10 -18
9 -64 13 -31 31 -57 41 -60 17 -5 19 -1 33 83 9 50 -16 94 -30 55z"/>
<path d="M3570 4190 c20 -13 43 -13 35 0 -3 6 -16 10 -28 10 -18 0 -19 -2 -7
-10z"/>
<path d="M3508 4183 c6 -2 18 -2 25 0 6 3 1 5 -13 5 -14 0 -19 -2 -12 -5z"/>
<path d="M2950 4171 c0 -17 61 -61 83 -61 19 1 18 3 -8 17 -16 9 -36 24 -43
35 -14 19 -32 24 -32 9z"/>
<path d="M3115 4165 c39 -7 95 -24 125 -39 61 -28 75 -27 39 4 -42 37 -85 50
-161 49 l-73 -1 70 -13z"/>
<path d="M3078 4103 c7 -3 16 -2 19 1 4 3 -2 6 -13 5 -11 0 -14 -3 -6 -6z"/>
<path d="M5110 4039 c0 -11 4 -18 10 -14 5 3 7 12 3 20 -7 21 -13 19 -13 -6z"/>
<path d="M5100 3973 c0 -12 5 -25 10 -28 6 -4 10 5 10 20 0 15 4 24 10 20 6
-3 10 -2 10 4 0 5 -9 9 -20 8 -14 -1 -20 -8 -20 -24z"/>
<path d="M5060 3925 c-1 -5 -3 -18 -5 -27 -2 -10 1 -21 7 -24 15 -10 18 0 9
32 -5 16 -10 25 -11 19z"/>
<path d="M1000 3902 c0 -6 -8 -13 -17 -15 -16 -4 -16 -5 -1 -6 18 -1 34 16 24
26 -3 4 -6 1 -6 -5z"/>
<path d="M1011 3864 c0 -11 3 -14 6 -6 3 7 2 16 -1 19 -3 4 -6 -2 -5 -13z"/>
<path d="M3731 3815 c-36 -7 -73 -10 -83 -7 -10 2 -31 -1 -48 -8 -16 -7 -53
-15 -82 -19 -42 -6 -31 -7 58 -8 61 0 120 -6 131 -12 16 -8 24 -6 38 9 10 11
33 25 51 32 36 13 46 29 17 27 -10 -1 -47 -7 -82 -14z"/>
<path d="M2780 3797 c0 -8 23 -24 50 -35 28 -12 50 -26 50 -31 0 -16 83 -56
88 -42 5 16 22 14 22 -3 0 -21 47 -7 53 16 4 13 -1 22 -16 27 -18 7 -14 10 27
16 l49 8 -24 18 c-27 20 -27 20 -139 23 -47 2 -102 6 -122 10 -29 5 -38 4 -38
-7z"/>
<path d="M1111 3764 c0 -11 3 -14 6 -6 3 7 2 16 -1 19 -3 4 -6 -2 -5 -13z"/>
<path d="M1254 3743 c-17 -13 -16 -14 11 -8 28 6 29 6 11 -9 -22 -18 -17 -30
8 -20 19 7 22 51 2 51 -7 0 -22 -7 -32 -14z"/>
<path d="M3330 3750 c-23 -7 -22 -8 10 -9 19 0 42 4 50 9 12 8 10 10 -10 9
-14 -1 -36 -5 -50 -9z"/>
<path d="M5190 3584 c0 -17 22 -14 28 4 2 7 -3 12 -12 12 -9 0 -16 -7 -16 -16z"/>
<path d="M1131 3164 c0 -11 3 -14 6 -6 3 7 2 16 -1 19 -3 4 -6 -2 -5 -13z"/>
<path d="M3925 2900 c-3 -16 -2 -37 3 -46 9 -16 10 -15 16 4 4 12 9 33 12 47
7 37 -23 32 -31 -5z"/>
<path d="M3855 2839 c-4 -6 -5 -12 -2 -15 2 -3 7 2 10 11 7 17 1 20 -8 4z"/>
<path d="M3845 2762 c-5 -4 -16 -18 -24 -32 -13 -23 -13 -24 3 -11 15 13 41
51 34 51 -2 0 -7 -4 -13 -8z"/>
<path d="M3882 2540 c0 -19 2 -27 5 -17 2 9 2 25 0 35 -3 9 -5 1 -5 -18z"/>
<path d="M3901 2388 c-1 -16 4 -28 9 -28 12 0 12 8 0 35 -8 18 -9 17 -9 -7z"/>
<path d="M3902 2207 c-1 -31 3 -67 8 -80 7 -17 9 -7 9 38 0 33 -4 69 -8 80 -6
14 -9 2 -9 -38z"/>
<path d="M3921 2029 c0 -42 -4 -91 -7 -108 -4 -19 -2 -31 4 -31 16 0 24 98 14
160 l-10 55 -1 -76z"/>
</g>
</svg>
